<svg width="74" height="86" viewBox="0 0 74 86" fill="none" xmlns="http://www.w3.org/2000/svg">
<g filter="url(#filter0_d)">
<rect x="1" width="72" height="72" rx="8" fill="#FFD600"/>
</g>
<path d="M35.5977 39.6183V40.1183H36.0977H39.752C40.5804 40.1183 41.252 39.4467 41.252 38.6183V28.9824C41.252 28.154 40.5804 27.4824 39.752 27.4824H37.0977C36.2692 27.4824 35.5977 28.154 35.5977 28.9824V39.6183Z" stroke="white"/>
<path d="M33.104 30.3086V29.8086H32.604H30.1133C29.2849 29.8086 28.6133 30.4802 28.6133 31.3086V38.6173C28.6133 39.4457 29.2849 40.1173 30.1133 40.1173H32.604H33.104V39.6173V30.3086Z" stroke="white"/>
<rect x="37.2578" y="29.1445" width="2.32718" height="1.16359" fill="white"/>
<rect x="37.2578" y="31.4727" width="2.32718" height="1.16359" fill="white"/>
<rect x="37.2578" y="33.8008" width="2.32718" height="1.16359" fill="white"/>
<rect x="30.2812" y="33.8008" width="1.16359" height="1.16359" fill="white"/>
<rect x="30.2812" y="31.4727" width="1.16359" height="1.16359" fill="white"/>
<rect x="30.2812" y="36.127" width="1.16359" height="1.16359" fill="white"/>
<circle cx="34.9323" cy="33.7995" r="12.0495" stroke="white" stroke-width="1.5"/>
<path d="M44.2383 41.9453L52.9652 50.6722" stroke="white" stroke-width="1.5" stroke-linecap="round"/>
<defs>
<filter id="filter0_d" x="0" y="0" width="74" height="86" filterUnits="userSpaceOnUse" color-interpolation-filters="sRGB">
<feFlood flood-opacity="0" result="BackgroundImageFix"/>
<feColorMatrix in="SourceAlpha" type="matrix" values="0 0 0 0 0 0 0 0 0 0 0 0 0 0 0 0 0 0 127 0"/>
<feMorphology radius="8" operator="erode" in="SourceAlpha" result="effect1_dropShadow"/>
<feOffset dy="13"/>
<feGaussianBlur stdDeviation="4.5"/>
<feColorMatrix type="matrix" values="0 0 0 0 0 0 0 0 0 0 0 0 0 0 0 0 0 0 0.24 0"/>
<feBlend mode="normal" in2="BackgroundImageFix" result="effect1_dropShadow"/>
<feBlend mode="normal" in="SourceGraphic" in2="effect1_dropShadow" result="shape"/>
</filter>
</defs>
</svg>
