<svg width="75" height="87" viewBox="0 0 75 87" fill="none" xmlns="http://www.w3.org/2000/svg">
<g filter="url(#filter0_d)">
<rect x="1" width="73" height="73" rx="8" fill="#FF3C3C"/>
</g>
<path d="M41.7475 40.3475C41.0262 40.3475 40.4393 39.8395 40.4393 39.2152C40.4393 38.5908 41.0262 38.0829 41.7475 38.0829C42.4689 38.0829 43.0558 38.5908 43.0558 39.2152C43.0558 39.5436 43.3221 39.8099 43.6504 39.8099C43.9788 39.8099 44.2451 39.5436 44.2451 39.2152C44.2451 38.1255 43.4332 37.2093 42.3422 36.9606V36.6513C42.3422 36.3229 42.0759 36.0566 41.7475 36.0566C41.4192 36.0566 41.1529 36.3229 41.1529 36.6513V36.9606C40.0619 37.2093 39.25 38.1255 39.25 39.2152C39.25 40.4953 40.3704 41.5368 41.7475 41.5368C42.4689 41.5368 43.0558 42.0447 43.0558 42.6691C43.0558 43.2935 42.4689 43.8015 41.7475 43.8015C41.0262 43.8015 40.4393 43.2935 40.4393 42.6691C40.4393 42.3408 40.173 42.0745 39.8447 42.0745C39.5163 42.0745 39.25 42.3408 39.25 42.6691C39.25 43.7588 40.0619 44.6751 41.1529 44.9238V45.1807C41.1529 45.509 41.4192 45.7753 41.7475 45.7753C42.0759 45.7753 42.3422 45.509 42.3422 45.1807V44.9238C43.4332 44.6751 44.2451 43.7588 44.2451 42.6691C44.2451 41.389 43.1247 40.3475 41.7475 40.3475Z" fill="white"/>
<path d="M48.2556 36.809C47.4788 35.5986 46.3844 34.63 45.0908 34.0081C44.7947 33.8657 44.4394 33.9904 44.2971 34.2864C44.1548 34.5824 44.2794 34.9377 44.5754 35.08C46.8298 36.1637 48.2864 38.4792 48.2864 40.979C48.2864 42.0487 48.0228 43.1095 47.524 44.0469C47.3698 44.3368 47.4797 44.6969 47.7697 44.8511C47.8586 44.8985 47.9543 44.921 48.0485 44.921C48.2612 44.921 48.467 44.8064 48.5739 44.6055C49.1639 43.4968 49.4757 42.2428 49.4757 40.979C49.4757 39.4947 49.0538 38.0528 48.2556 36.809Z" fill="white"/>
<path d="M42.6855 33.2481L42.6454 33.248C42.3171 33.248 42.0508 33.5143 42.0508 33.8427C42.0508 34.1711 42.3171 34.4374 42.6454 34.4374L42.6799 34.4374C42.6808 34.4374 42.6817 34.4374 42.6827 34.4374C43.0098 34.4374 43.2758 34.173 43.2773 33.8456C43.2788 33.5171 43.0138 33.2497 42.6855 33.2481Z" fill="white"/>
<path d="M38.9198 46.88C36.6654 45.7963 35.2088 43.4808 35.2088 40.981C35.2088 39.9113 35.4725 38.8505 35.9712 37.9131C36.1255 37.6232 36.0155 37.2631 35.7256 37.1089C35.4358 36.9546 35.0755 37.0646 34.9213 37.3545C34.3314 38.4632 34.0195 39.7173 34.0195 40.981C34.0195 42.4653 34.4414 43.9072 35.2396 45.151C36.0164 46.3614 37.1108 47.33 38.4045 47.952C38.4876 47.9919 38.5754 48.0108 38.6618 48.0108C38.8832 48.0108 39.0957 47.8865 39.1981 47.6737C39.3403 47.3776 39.2158 47.0223 38.9198 46.88Z" fill="white"/>
<path d="M40.8661 47.5216L40.8317 47.5215C40.5018 47.5209 40.2359 47.7849 40.2344 48.1133C40.2328 48.4418 40.4979 48.7092 40.8263 48.7108L40.8661 48.7109C41.1945 48.7109 41.4608 48.4446 41.4608 48.1163C41.4608 47.7879 41.1945 47.5216 40.8661 47.5216Z" fill="white"/>
<path d="M44.4554 31.238C44.383 31.0656 44.2944 30.9031 44.1912 30.7523H45.7393C47.2476 30.7523 48.4747 29.5252 48.4747 28.0169C48.4747 26.5086 47.2476 25.2815 45.7393 25.2815H40.9773C41.2801 24.8413 41.4578 24.3088 41.4578 23.7354C41.4578 22.2271 40.2307 21 38.7224 21H24.1534C22.6451 21 21.418 22.2271 21.418 23.7354C21.418 25.2437 22.6451 26.4708 24.1534 26.4708H28.9154C28.6126 26.911 28.4349 27.4435 28.4349 28.0169C28.4349 28.5903 28.6126 29.1229 28.9154 29.563H27.3645C25.8562 29.563 24.6291 30.7901 24.6291 32.2984C24.6291 33.1647 25.0343 33.9376 25.6647 34.4392C25.0343 34.9407 24.6291 35.7137 24.6291 36.5799C24.6291 37.4462 25.0343 38.2192 25.6647 38.7207C25.0343 39.2222 24.6291 39.9952 24.6291 40.8614C24.6291 41.7277 25.0343 42.5007 25.6647 43.0022C25.0343 43.5037 24.6291 44.2767 24.6291 45.143C24.6291 46.6512 25.8562 47.8784 27.3645 47.8784H34.3725C36.2187 49.853 38.845 51.0896 41.7552 51.0896C47.3294 51.0896 51.8643 46.5546 51.8643 40.9804C51.8643 36.3411 48.7228 32.4223 44.4554 31.238ZM45.7393 26.4708C46.5919 26.4708 47.2854 27.1644 47.2854 28.0169C47.2854 28.8694 46.5919 29.563 45.7393 29.563H41.9335H31.1703C30.3177 29.563 29.6242 28.8694 29.6242 28.0169C29.6242 27.1644 30.3177 26.4708 31.1703 26.4708H45.7393ZM24.1534 25.2815C23.3008 25.2815 22.6073 24.5879 22.6073 23.7354C22.6073 22.8829 23.3008 22.1893 24.1534 22.1893H38.7224C39.575 22.1893 40.2685 22.8829 40.2685 23.7354C40.2685 24.5879 39.575 25.2815 38.7224 25.2815H24.1534ZM27.3645 30.7523H41.9335C42.1731 30.7523 42.4024 30.808 42.6082 30.9076C42.3269 30.884 42.0425 30.8713 41.7552 30.8713C38.9636 30.8713 36.4327 32.0088 34.6016 33.8445H27.3645C26.512 33.8445 25.8184 33.1509 25.8184 32.2984C25.8184 31.4459 26.512 30.7523 27.3645 30.7523ZM27.3645 35.0338H33.5855C32.9104 35.9587 32.3885 37.0018 32.057 38.126H27.3645C26.512 38.126 25.8184 37.4325 25.8184 36.5799C25.8184 35.7274 26.512 35.0338 27.3645 35.0338ZM27.3645 39.3153H31.784C31.6938 39.8573 31.6461 40.4133 31.6461 40.9804C31.6461 41.4648 31.6811 41.9412 31.7473 42.4075H27.3645C26.512 42.4075 25.8184 41.714 25.8184 40.8614C25.8184 40.0089 26.512 39.3153 27.3645 39.3153ZM27.3645 46.6891C26.512 46.6891 25.8184 45.9955 25.8184 45.143C25.8184 44.2904 26.512 43.5969 27.3645 43.5969H31.9901C32.2901 44.7156 32.7776 45.7582 33.4168 46.6891H27.3645ZM41.7552 49.9002C36.8368 49.9002 32.8354 45.8988 32.8354 40.9804C32.8354 36.0621 36.8368 32.0606 41.7552 32.0606C46.6736 32.0606 50.675 36.0621 50.675 40.9804C50.675 45.8988 46.6736 49.9002 41.7552 49.9002Z" fill="white"/>
<defs>
<filter id="filter0_d" x="0" y="0" width="75" height="87" filterUnits="userSpaceOnUse" color-interpolation-filters="sRGB">
<feFlood flood-opacity="0" result="BackgroundImageFix"/>
<feColorMatrix in="SourceAlpha" type="matrix" values="0 0 0 0 0 0 0 0 0 0 0 0 0 0 0 0 0 0 127 0"/>
<feMorphology radius="8" operator="erode" in="SourceAlpha" result="effect1_dropShadow"/>
<feOffset dy="13"/>
<feGaussianBlur stdDeviation="4.5"/>
<feColorMatrix type="matrix" values="0 0 0 0 0 0 0 0 0 0 0 0 0 0 0 0 0 0 0.24 0"/>
<feBlend mode="normal" in2="BackgroundImageFix" result="effect1_dropShadow"/>
<feBlend mode="normal" in="SourceGraphic" in2="effect1_dropShadow" result="shape"/>
</filter>
</defs>
</svg>
