<svg width="75" height="87" viewBox="0 0 75 87" fill="none" xmlns="http://www.w3.org/2000/svg">
<g filter="url(#filter0_d)">
<rect x="1" width="73" height="73" rx="8" fill="#08C348"/>
</g>
<path d="M45.7526 39.0582C45.5645 38.9524 45.3512 38.8324 45.0943 38.6778C44.9509 38.5912 44.7707 38.4728 44.5797 38.3475C43.5992 37.7039 42.8562 37.2484 42.2238 37.2484C42.0756 37.2484 41.9355 37.2735 41.8078 37.3227C41.2537 37.5361 40.7987 38.1061 40.3587 38.6573C40.1975 38.8592 39.9667 39.1484 39.8266 39.2776C39.2711 39.1766 38.0993 38.4507 36.8349 37.1863C35.569 35.9203 34.843 34.7473 34.7433 34.193C34.8723 34.0525 35.1637 33.82 35.3669 33.6577C35.916 33.2193 36.4838 32.766 36.6983 32.2136C36.972 31.5039 36.4704 30.6552 35.6738 29.4415C35.5484 29.2505 35.43 29.0701 35.344 28.9278C35.1889 28.6699 35.0689 28.4566 34.9631 28.2685C34.5287 27.4965 34.2418 26.9863 33.1634 26.9863C32.4635 26.9863 31.4739 27.6477 30.8036 28.3036C29.8295 29.257 29.293 30.3577 29.293 31.4052C29.2948 34.25 30.8825 37.5106 33.649 40.3542C33.6538 40.3589 33.6585 40.3602 33.6634 40.3649C36.507 43.1315 39.7693 44.7138 42.6141 44.7138H42.6152C43.6613 44.7138 44.7624 44.1834 45.7157 43.2098C46.3721 42.5396 47.0344 41.5572 47.0344 40.8578C47.0345 39.7795 46.5245 39.4926 45.7526 39.0582V39.0582ZM42.6144 43.244C40.1912 43.2422 37.2353 41.7737 34.7058 39.3156C32.2474 36.7858 30.7789 33.8296 30.7773 31.4067C30.7773 29.941 32.6792 28.5475 33.1766 28.4712C33.2782 28.4716 33.3315 28.4776 33.3569 28.4819C33.4226 28.5576 33.5533 28.7899 33.6697 28.9967C33.775 29.1839 33.9061 29.4169 34.0731 29.6944C34.174 29.8616 34.2999 30.0533 34.4331 30.2562C34.6852 30.6403 35.192 31.4124 35.2774 31.742C35.1345 31.9442 34.6913 32.2981 34.441 32.4979C33.8005 33.0093 33.2473 33.4508 33.2473 34.0749C33.2489 35.5823 35.1905 37.641 35.7855 38.236C36.3806 38.831 38.4392 40.7727 39.9498 40.7741C40.5699 40.7721 41.0096 40.2213 41.5188 39.5834C41.7196 39.3319 42.0756 38.8859 42.2787 38.7438C42.6079 38.8287 43.381 39.336 43.7654 39.5884C43.9683 39.7216 44.1599 39.8474 44.3281 39.949C44.6047 40.1154 44.8376 40.2465 45.0249 40.3518C45.2316 40.4682 45.464 40.5989 45.5397 40.6647C45.544 40.69 45.5499 40.7433 45.5504 40.8448C45.4735 41.3417 44.0795 43.2422 42.6144 43.244V43.244Z" fill="white"/>
<path d="M52.9242 36.2053C52.8721 32.1947 51.2623 28.405 48.3915 25.5341C45.4676 22.6103 41.6082 21 37.524 21C33.5815 21 29.8932 22.5171 27.1386 25.2716C24.6942 27.716 23.1945 30.9762 22.9156 34.4516C22.651 37.749 23.4904 41.0859 25.2829 43.8916L22.8352 50.5078C22.7325 50.7855 22.8046 51.0977 23.0189 51.3022C23.1596 51.4366 23.3441 51.5075 23.5314 51.5075C23.629 51.5075 23.7276 51.4792 23.821 51.4395L30.1958 48.7267C32.6294 50.2414 35.4121 51.022 38.2694 51.022H38.2697C42.2116 51.022 45.8997 49.5231 48.654 46.7688C51.4598 43.9629 52.9764 40.223 52.9242 36.2053V36.2053ZM47.6043 45.7374C45.1302 48.2115 41.815 49.5739 38.2693 49.5739C35.57 49.5738 32.9438 48.7837 30.6745 47.2889C30.5514 47.2079 30.4092 47.1666 30.2662 47.1666C30.1681 47.1666 30.0695 47.1861 29.9765 47.2255L24.8235 49.4111L26.805 44.0551C26.8879 43.8309 26.8577 43.5805 26.7241 43.3824C23.082 37.9868 23.6978 30.8115 28.1881 26.3212C30.6624 23.8469 33.9779 22.4843 37.524 22.4843C41.2117 22.4843 44.6984 23.9401 47.3419 26.5836C49.9376 29.1793 51.393 32.6031 51.4401 36.2246C51.487 39.8386 50.1248 43.2169 47.6043 45.7374Z" fill="white"/>
<defs>
<filter id="filter0_d" x="0" y="0" width="75" height="87" filterUnits="userSpaceOnUse" color-interpolation-filters="sRGB">
<feFlood flood-opacity="0" result="BackgroundImageFix"/>
<feColorMatrix in="SourceAlpha" type="matrix" values="0 0 0 0 0 0 0 0 0 0 0 0 0 0 0 0 0 0 127 0"/>
<feMorphology radius="8" operator="erode" in="SourceAlpha" result="effect1_dropShadow"/>
<feOffset dy="13"/>
<feGaussianBlur stdDeviation="4.5"/>
<feColorMatrix type="matrix" values="0 0 0 0 0 0 0 0 0 0 0 0 0 0 0 0 0 0 0.24 0"/>
<feBlend mode="normal" in2="BackgroundImageFix" result="effect1_dropShadow"/>
<feBlend mode="normal" in="SourceGraphic" in2="effect1_dropShadow" result="shape"/>
</filter>
</defs>
</svg>
