<svg width="26" height="28" viewBox="0 0 26 28" fill="none" xmlns="http://www.w3.org/2000/svg">
<path d="M19.7459 9.75897C20.997 9.75897 22.0113 8.75638 22.0113 7.51962C22.0113 6.28286 20.997 5.28027 19.7459 5.28027C18.4947 5.28027 17.4805 6.28286 17.4805 7.51962C17.4805 8.75638 18.4947 9.75897 19.7459 9.75897Z" fill="#7E4A96"/>
<path d="M17.7323 15.1333H22.2915C22.2915 13.5098 22.2065 11.9422 21.8667 11.1584C21.3853 10.0108 19.6013 10.1787 18.95 10.4026C18.327 10.5986 17.6757 11.1024 17.4775 11.2704C17.1377 11.5223 16.0616 12.2501 16.0616 12.2501L14.136 11.2704C13.6263 11.0185 13.0033 11.2144 12.7484 11.7183C12.4936 12.2221 12.6918 12.838 13.2015 13.0899L15.6651 14.3495C15.8067 14.4335 15.9766 14.4615 16.1465 14.4615C16.3448 14.4615 16.543 14.4055 16.7129 14.2935L17.704 13.6497V14.0416C17.704 14.2935 17.704 14.7134 17.7323 15.1333Z" fill="#7E4A96"/>
<path d="M11.958 10.0682C12.0431 10.1803 12.1565 10.2364 12.2699 10.2364C12.355 10.2364 12.4117 10.2084 12.4968 10.1803C12.6669 10.0682 12.7237 9.81589 12.6102 9.64769L12.355 9.28326C12.2416 9.11506 11.9864 9.059 11.8162 9.17113C11.6461 9.28326 11.5894 9.53556 11.7028 9.70376L11.958 10.0682Z" fill="#7E4A96"/>
<path d="M10.9119 8.52761C10.997 8.63974 11.1104 8.6958 11.2238 8.6958C11.3089 8.6958 11.3656 8.66777 11.4507 8.63974C11.6208 8.52761 11.6775 8.27533 11.5641 8.10714L11.3089 7.74273C11.1955 7.57454 10.9402 7.51847 10.7701 7.6306C10.6 7.74273 10.5432 7.99501 10.6567 8.1632L10.9119 8.52761Z" fill="#7E4A96"/>
<path d="M9.69109 6.06411C9.52094 6.17624 9.46423 6.42851 9.57766 6.59669L9.83288 6.96109C9.91796 7.07321 10.0314 7.12927 10.1448 7.12927C10.2299 7.12927 10.2866 7.10124 10.3717 7.07321C10.5418 6.96109 10.5985 6.70882 10.4851 6.54063L10.2299 6.17624C10.1165 5.98002 9.8896 5.95199 9.69109 6.06411Z" fill="#7E4A96"/>
<path d="M13.5413 9.08881C13.6264 9.08881 13.7114 9.06077 13.7965 9.00471C13.9667 8.86456 13.9667 8.61227 13.8249 8.47212L13.5413 8.13574C13.3995 7.96756 13.1443 7.96756 13.0025 8.10771C12.8323 8.24787 12.8323 8.50015 12.9741 8.64031L13.2577 8.97668C13.3428 9.03274 13.4562 9.08881 13.5413 9.08881Z" fill="#7E4A96"/>
<path d="M11.053 6.26166C11.1381 6.26166 11.2232 6.23363 11.3082 6.17756C11.4784 6.03741 11.4784 5.78513 11.3366 5.64497L11.053 5.30859C10.9112 5.14041 10.656 5.14041 10.5142 5.28056C10.3441 5.42072 10.3441 5.673 10.4859 5.81316L10.7694 6.14953C10.8261 6.23363 10.9396 6.26166 11.053 6.26166Z" fill="#7E4A96"/>
<path d="M12.0145 7.5488C12.0996 7.6329 12.213 7.68896 12.2981 7.68896C12.3832 7.68896 12.4683 7.66093 12.5533 7.60487C12.7235 7.4647 12.7235 7.21241 12.5817 7.07224L12.2981 6.73585C12.1563 6.56765 11.9011 6.56765 11.7593 6.70782C11.5892 6.84798 11.5892 7.10028 11.731 7.24044L12.0145 7.5488Z" fill="#7E4A96"/>
<path d="M11.928 5.3938C12.0415 5.3938 12.1549 5.33774 12.2116 5.25365C12.3534 5.08547 12.325 4.86123 12.1832 4.72108L11.843 4.44077C11.6728 4.30062 11.4459 4.32865 11.3042 4.46881C11.1624 4.63699 11.1907 4.86123 11.3325 5.00138L11.6728 5.28168C11.7579 5.36577 11.843 5.3938 11.928 5.3938Z" fill="#7E4A96"/>
<path d="M14.164 6.93158C14.0222 7.09977 14.0506 7.32403 14.1923 7.46419L14.5326 7.74452C14.6177 7.80058 14.7028 7.82861 14.7879 7.82861C14.9013 7.82861 15.0147 7.77255 15.0714 7.68845C15.2132 7.52026 15.1849 7.296 15.0431 7.15584L14.7028 6.87551C14.5326 6.76338 14.3058 6.76338 14.164 6.93158Z" fill="#7E4A96"/>
<path d="M12.7182 5.70061C12.5764 5.8688 12.6048 6.09304 12.7466 6.2332L13.0869 6.5135C13.1719 6.56956 13.257 6.5976 13.3421 6.5976C13.4555 6.5976 13.569 6.54153 13.6257 6.45744C13.7675 6.28926 13.7391 6.06501 13.5973 5.92486L13.257 5.64455C13.1152 5.53243 12.86 5.53243 12.7182 5.70061Z" fill="#7E4A96"/>
<path d="M14.1659 5.50509C14.2226 5.56116 14.3076 5.56116 14.3927 5.56116C14.5061 5.56116 14.6479 5.50509 14.7047 5.39296C14.8181 5.22477 14.7897 4.97248 14.5912 4.86035L14.2226 4.60806C14.0524 4.49593 13.7972 4.52397 13.6838 4.72019C13.5703 4.88839 13.5987 5.14067 13.7972 5.2528L14.1659 5.50509Z" fill="#7E4A96"/>
<path d="M15.7525 6.54104C15.8092 6.59711 15.8943 6.59711 15.9794 6.59711C16.0928 6.59711 16.2346 6.54104 16.2913 6.42891C16.4048 6.26072 16.3764 6.00842 16.1779 5.89629L15.8092 5.67203C15.6391 5.5599 15.3839 5.58793 15.2704 5.78416C15.157 5.95236 15.1854 6.20465 15.3839 6.31678L15.7525 6.54104Z" fill="#7E4A96"/>
<path d="M12.5797 4.4421C12.6364 4.49817 12.7215 4.49817 12.8065 4.49817C12.92 4.49817 13.0618 4.4421 13.1185 4.32998C13.2319 4.16178 13.2035 3.90949 13.005 3.79736L12.6364 3.54508C12.4662 3.43295 12.211 3.46098 12.0976 3.6572C11.9842 3.8254 12.0125 4.07769 12.211 4.18982L12.5797 4.4421Z" fill="#7E4A96"/>
<path d="M5.38564 3.34871C5.38564 2.62092 5.98031 2.03309 6.71657 2.03309C7.02806 2.03309 7.31124 2.14506 7.56609 2.341C7.48114 2.7049 7.56609 3.09678 7.84927 3.3767L8.13245 3.65662C7.90591 4.38441 8.01918 5.19618 8.52889 5.83999C8.61385 5.95196 8.81207 5.95196 8.92534 5.83999L11.8987 2.90084C12.012 2.78887 12.012 2.59293 11.8987 2.50895C11.2757 2.0051 10.4545 1.89313 9.68992 2.11707L9.40674 1.83715C9.12356 1.55723 8.6988 1.47325 8.33067 1.55723C7.87759 1.16534 7.31124 0.941406 6.71657 0.941406C5.35732 0.941406 4.28125 2.03309 4.28125 3.34871V15.1333H5.38564V3.34871Z" fill="#7E4A96"/>
<path d="M24.5573 16.0293H1.95985C1.33687 16.0293 0.855469 16.5332 0.855469 17.121C0.855469 17.7088 1.36519 18.2127 1.95985 18.2127H1.98817L2.86602 21.4597C3.34742 23.2792 4.73498 24.6788 6.43403 25.2666L6.12254 26.0504C5.896 26.6102 6.20749 27.254 6.77385 27.478C6.91543 27.534 7.0287 27.5619 7.17029 27.5619C7.62337 27.5619 8.04814 27.282 8.21804 26.8342L8.69944 25.5745H17.7611L18.2425 26.8342C18.4124 27.282 18.8371 27.5619 19.2902 27.5619C19.4318 27.5619 19.5451 27.534 19.6867 27.478C20.253 27.254 20.5645 26.6382 20.338 26.0504L20.0548 25.2666C21.7822 24.6788 23.1414 23.2792 23.6228 21.4597L24.5007 18.2127H24.529C25.152 18.2127 25.6334 17.7088 25.6334 17.121C25.6334 16.5332 25.1803 16.0293 24.5573 16.0293Z" fill="#7E4A96"/>
</svg>
