<svg width="49" height="27" viewBox="0 0 49 27" fill="none" xmlns="http://www.w3.org/2000/svg">
<path fill-rule="evenodd" clip-rule="evenodd" d="M16.474 7.29675C17.2394 7.32944 17.9382 7.59098 18.5704 8.24483L19.6685 11.841C14.7104 12.7891 9.41954 12.7891 4.46143 11.841L5.59281 8.24483C6.22506 7.59098 6.92385 7.32944 7.65592 7.29675C10.4178 7.00252 13.7454 7.00252 16.474 7.29675ZM17.8051 20.2103V21.8122C17.8051 22.3353 18.2377 22.793 18.8033 22.793H21.7316C22.264 22.793 22.6966 22.3353 22.6966 21.8122C22.6966 19.393 22.7299 16.9737 22.7299 14.5545C22.5968 14.2602 22.497 13.9333 22.3639 13.6391C24.9927 13.8679 24.2606 11.2852 21.2658 11.5141L19.9347 7.78714C19.5354 6.77367 18.6037 6.15251 17.2394 5.82559C14.0449 5.40059 10.0851 5.40059 6.92385 5.82559C5.55954 6.15251 4.62781 6.77367 4.2285 7.78714L2.86419 11.5141C-0.0973627 11.2852 -0.862708 13.8679 1.79936 13.6391C1.66626 13.9333 1.56643 14.2602 1.43333 14.5545C1.43333 16.9737 1.43333 19.393 1.43333 21.8122C1.43333 22.3353 1.89919 22.793 2.4316 22.793H5.35988C5.8923 22.793 6.35816 22.3353 6.35816 21.8122V20.2103H17.8051ZM3.2635 16.3853C3.2635 15.9276 3.29678 15.3391 3.29678 15.1102C3.33005 14.4237 4.46143 14.3583 4.76092 14.5218C4.79419 14.5218 6.92385 15.4372 7.98868 15.9276C8.15506 16.2872 8.15506 16.6141 7.9554 16.8756C5.95885 17.3006 4.06212 17.3987 3.2635 16.3853ZM20.8997 16.3853C20.8997 15.9276 20.8332 15.3391 20.8332 15.1102C20.8332 14.4237 19.7018 14.3583 19.4023 14.5218C19.3358 14.5218 17.2394 15.4372 16.1745 15.9276C16.0082 16.2872 15.9749 16.6141 16.1745 16.8756C18.2044 17.3006 20.0678 17.3987 20.8997 16.3853Z" fill="#7E4A96"/>
<path d="M47.7033 6.13897L45.6099 5.64954C45.4934 5.32925 45.4021 4.99264 45.3557 4.6533C45.3267 4.44129 45.1959 4.25689 45.0054 4.15941C43.0474 3.15752 40.6218 3.06594 38.5045 4.10394C38.4791 4.12439 38.0603 4.25104 38.0364 4.70774C38.0192 5.03596 37.9689 5.33919 37.8974 5.61718L35.6656 6.13897C35.3136 6.22127 35.095 6.5733 35.1772 6.92528C35.2593 7.27613 35.6104 7.49611 35.9636 7.41361L37.1966 7.12531C37.0127 7.38457 36.8327 7.58541 36.6374 7.76572C37.2447 8.72012 38.5629 11.1661 41.713 11.1661C43.6659 11.1661 45.1961 10.3026 46.3291 8.6444L46.905 7.78179C46.7712 7.65532 46.634 7.51317 46.4037 7.17943C47.424 7.41234 47.423 7.43091 47.5548 7.43091C47.852 7.43091 48.121 7.22712 48.1915 6.92528C48.2739 6.57334 48.0552 6.22127 47.7033 6.13897Z" fill="#7E4A96"/>
<path d="M46.5469 10.4473C45.9353 11.0821 45.1514 11.6743 44.1658 12.053C44.7452 15.6313 44.6975 18.3033 44.0233 20.0039V16.7306C44.0233 16.0308 43.7037 15.4043 43.2029 14.9891C43.1452 14.1922 43.0425 13.3247 42.8948 12.3919C42.1499 12.5099 41.3171 12.501 40.6286 12.392C40.4809 13.3247 40.3782 14.1922 40.3204 14.9891C39.8196 15.4043 39.5001 16.0308 39.5001 16.7306V20.004C38.8259 18.3034 38.7782 15.6314 39.3576 12.0531C38.3727 11.6746 37.5892 11.083 36.9778 10.4487C36.751 12.2056 36.5297 15.2044 37.1805 17.6871C37.2531 17.9639 37.2565 17.8445 39.5001 20.3154V22.021C39.5001 23.268 40.5147 24.2826 41.7617 24.2826C43.0088 24.2826 44.0234 23.268 44.0234 22.021V20.3154C46.2607 17.8514 46.2701 17.9649 46.3429 17.6871C47.2238 14.3268 46.4976 10.4981 46.5469 10.4473V10.4473Z" fill="#7E4A96"/>
<line x1="29.6675" y1="26.6958" x2="29.6675" y2="0.14846" stroke="#7E4A96" stroke-width="1.60893"/>
</svg>
