<svg width="18" height="21" viewBox="0 0 18 21" fill="none" xmlns="http://www.w3.org/2000/svg">
<path d="M12.0772 13.7874C14.1965 10.5 13.9301 10.9102 13.9912 10.8245C14.7628 9.74866 15.1706 8.48249 15.1706 7.16275C15.1706 3.66289 12.2975 0.779785 8.75226 0.779785C5.2186 0.779785 2.33394 3.6572 2.33394 7.16275C2.33394 8.48164 2.75031 9.78096 3.54719 10.8713L5.42726 13.7874C3.41716 14.0928 0 15.0027 0 17.0064C0 17.7368 0.482269 18.7776 2.7798 19.5887C4.38407 20.1551 6.50511 20.467 8.75226 20.467C12.9543 20.467 17.5045 19.2953 17.5045 17.0064C17.5045 15.0024 14.0914 14.0934 12.0772 13.7874ZM4.52196 10.2368C4.51554 10.2268 4.50885 10.2172 4.50185 10.2076C3.83874 9.30585 3.5009 8.23713 3.5009 7.16275C3.5009 4.27819 5.85063 1.93333 8.75226 1.93333C11.6479 1.93333 14.0036 4.27923 14.0036 7.16275C14.0036 8.23886 13.6722 9.27132 13.0449 10.1493C12.9887 10.2226 13.282 9.77227 8.75226 16.7983L4.52196 10.2368ZM8.75226 19.3135C4.16242 19.3135 1.16697 17.9798 1.16697 17.0064C1.16697 16.3521 2.70612 15.2762 6.11678 14.8569L8.26019 18.1815C8.36732 18.3477 8.55287 18.4483 8.75222 18.4483C8.95158 18.4483 9.13717 18.3477 9.24426 18.1815L11.3876 14.8569C14.7984 15.2762 16.3376 16.3521 16.3376 17.0064C16.3376 17.9716 13.3691 19.3135 8.75226 19.3135Z" fill="#7E4A96"/>
<path d="M8.75336 4.27881C7.14469 4.27881 5.83594 5.57252 5.83594 7.16269C5.83594 8.75286 7.14469 10.0466 8.75336 10.0466C10.362 10.0466 11.6708 8.75286 11.6708 7.16269C11.6708 5.57252 10.362 4.27881 8.75336 4.27881ZM8.75336 8.89302C7.78816 8.89302 7.00291 8.11679 7.00291 7.16269C7.00291 6.20859 7.78816 5.43236 8.75336 5.43236C9.71856 5.43236 10.5038 6.20859 10.5038 7.16269C10.5038 8.11679 9.71856 8.89302 8.75336 8.89302Z" fill="#7E4A96"/>
</svg>
