<svg width="31" height="20" viewBox="0 0 31 20" fill="none" xmlns="http://www.w3.org/2000/svg">
<path d="M3.692 2.393C3.692 1.58728 3.0317 0.93457 2.21756 0.93457C1.40246 0.93457 0.742157 1.58822 0.742157 2.393V19.3671H3.692V16.5447H27.415V19.3671H30.3648V10.6496H3.692V2.393Z" fill="#7E4A96"/>
<path d="M25.999 3.96582H10.1958V9.57477H30.364V8.27974C30.364 5.8975 28.4099 3.96582 25.999 3.96582Z" fill="#7E4A96"/>
<path d="M6.8046 9.57489C8.18096 9.57489 9.29672 8.47196 9.29672 7.11142C9.29672 5.75088 8.18096 4.64795 6.8046 4.64795C5.42823 4.64795 4.31247 5.75088 4.31247 7.11142C4.31247 8.47196 5.42823 9.57489 6.8046 9.57489Z" fill="#7E4A96"/>
</svg>
