<svg width="58" height="58" viewBox="0 0 58 58" fill="none" xmlns="http://www.w3.org/2000/svg">
<path d="M56.6607 17.828L29.3636 1.50925C29.2931 1.46701 29.2151 1.44061 29.1345 1.42793C28.9604 1.38675 28.7703 1.41579 28.6138 1.50925L1.33752 17.828C1.12764 17.9527 1 18.1781 1 18.42V24.1298C1 24.3779 1.13405 24.6071 1.3514 24.7302C1.56929 24.8542 1.83685 24.8527 2.05313 24.7275L6.161 22.3529V50.2454H4.2064C3.81975 50.2454 3.5068 50.5549 3.5068 50.9377V56.0872C3.5068 56.4695 3.81975 56.7795 4.2064 56.7795H53.7918C54.1785 56.7795 54.492 56.4695 54.492 56.0872V50.9377C54.492 50.5549 54.1785 50.2454 53.7918 50.2454H51.8372V22.3545L55.9451 24.7275C56.0546 24.7903 56.1763 24.822 56.2986 24.822C56.4188 24.822 56.5389 24.7914 56.6474 24.7302C56.8647 24.6071 56.9982 24.3779 56.9982 24.1298V18.42C56.9982 18.1781 56.8706 17.9527 56.6607 17.828ZM53.0917 55.3949H4.90653V51.6294H53.0917V55.3949ZM34.5988 50.2454H23.3994V28.6282H34.5988V50.2454ZM50.4375 50.2454H35.9991V27.9359C35.9991 27.5531 35.6861 27.2437 35.299 27.2437H22.6993C22.3126 27.2437 21.9991 27.5531 21.9991 27.9359V50.2454H7.56073V21.5434L28.9887 9.15538L50.4375 21.5455V50.2454ZM55.5985 22.9242L29.3422 7.75606C29.2328 7.69322 29.1115 7.66154 28.9887 7.66154C28.8664 7.66154 28.7446 7.69322 28.6357 7.75606L2.39973 22.9232V18.8097L28.9887 2.9033L55.5985 18.8097V22.9242Z" fill="white" stroke="white"/>
<path d="M17.8309 27.2437H11.118C10.7314 27.2437 10.4184 27.5531 10.4184 27.9359V37.171C10.4184 37.5533 10.7314 37.8627 11.118 37.8627H17.8309C18.2176 37.8627 18.5311 37.5533 18.5311 37.171V27.9359C18.5311 27.5531 18.2176 27.2437 17.8309 27.2437ZM17.1308 36.4787H11.8182V28.6282H17.1308V36.4787Z" fill="white" stroke="white"/>
<path d="M39.8603 37.8622H46.5732C46.9599 37.8622 47.2728 37.5528 47.2728 37.1705V27.9354C47.2728 27.5526 46.9599 27.2432 46.5732 27.2432H39.8603C39.4736 27.2432 39.1602 27.5526 39.1602 27.9354V37.1705C39.1602 37.5528 39.4736 37.8622 39.8603 37.8622ZM40.5604 28.6277H45.8731V36.4782H40.5604V28.6277Z" fill="white" stroke="white"/>
</svg>
