<svg width="57" height="54" viewBox="0 0 57 54" fill="none" xmlns="http://www.w3.org/2000/svg">
<g clip-path="url(#clip0)">
<path d="M15.2471 34.3547C15.7793 34.0471 15.9619 33.365 15.6546 32.8322C15.3473 32.2994 14.666 32.1167 14.1339 32.4243C13.6017 32.7319 13.4191 33.414 13.7264 33.9468C14.0337 34.4807 14.715 34.6635 15.2471 34.3547Z" fill="white"/>
<path d="M10.6855 42.0474L16.292 51.7699C17.5021 53.8697 20.2229 54.6477 22.3749 53.4016C24.5046 52.17 25.2361 49.4449 24.0048 47.3116L20.6649 41.5191L23.5572 39.8473C24.0894 39.5385 24.2719 38.8575 23.9647 38.3248L22.5174 35.8147C22.69 35.7813 23.8255 35.5584 43.8412 31.6273C46.316 31.4924 47.7978 28.7829 46.5487 26.6173L42.8493 20.2018L45.2139 16.6162C45.4466 16.264 45.4599 15.8104 45.2495 15.4448L43.0229 11.5839C42.8125 11.2183 42.4118 11.0043 41.9921 11.0288L37.7093 11.2863L33.6024 4.16307C33.0079 3.13098 31.9413 2.50681 30.7512 2.49121C30.7368 2.49121 30.7234 2.49121 30.7089 2.49121C29.5589 2.49121 28.5158 3.0641 27.8968 4.03267L13.3518 22.5814L3.89668 28.0462C0.178317 30.1951 -1.10975 34.971 1.04445 38.7037C3.01273 42.1177 7.16304 43.4607 10.6855 42.0474ZM22.0777 48.4273C22.6922 49.4917 22.3282 50.8548 21.2616 51.4723C20.1918 52.092 18.828 51.7108 18.2202 50.6564L12.6537 41.0031L16.5102 38.7739C22.9527 49.9464 21.9741 48.2489 22.0777 48.4273ZM19.5516 39.5898L18.4384 37.6594L20.3666 36.5448L21.4798 38.4752L19.5516 39.5898ZM41.4376 13.2948L42.9762 15.9631L41.6046 18.0429L38.9528 13.4441L41.4376 13.2948ZM29.7571 5.25535C30.0554 4.76606 30.5297 4.7159 30.7223 4.72036C30.9127 4.72259 31.3858 4.78166 31.6719 5.27765L44.6205 27.733C45.0424 28.4641 44.5292 29.3825 43.6842 29.4037C43.5328 29.4071 43.4627 29.4349 43.0742 29.5074L29.3752 5.75468C29.6636 5.38464 29.7003 5.34898 29.7571 5.25535ZM27.8935 7.645L40.763 29.961L21.3407 33.7751L15.4347 23.5344L27.8935 7.645ZM2.97265 37.5891C2.48392 36.7421 2.22564 35.7813 2.22564 34.8083C2.22564 32.8199 3.29328 30.9686 5.00996 29.9766L13.6869 24.961L19.2533 34.6132L10.5764 39.6288C7.91785 41.1658 4.50787 40.2507 2.97265 37.5891Z" fill="white"/>
<path d="M11.7971 35.0612C11.4898 34.5285 10.8085 34.3457 10.2764 34.6533L8.34815 35.7679C7.81711 36.0755 7.13467 35.8916 6.82741 35.3599C6.52014 34.8272 5.83881 34.6444 5.30666 34.952C4.77452 35.2596 4.59194 35.9417 4.8992 36.4745C5.81543 38.0639 7.85942 38.6245 9.46143 37.6983L11.3896 36.5837C11.9229 36.2761 12.1055 35.5951 11.7971 35.0612Z" fill="white"/>
<path d="M55.3454 4.87662L49.1422 8.33292C48.6056 8.63274 48.4119 9.31151 48.7102 9.84874C49.0086 10.386 49.6866 10.581 50.2243 10.2812L56.4275 6.8249C56.9652 6.52508 57.1578 5.8463 56.8595 5.30908C56.56 4.76963 55.882 4.5768 55.3454 4.87662Z" fill="white"/>
<path d="M54.6959 16.4204L50.3942 15.2668C49.7997 15.1075 49.1896 15.4597 49.0304 16.0548C48.8712 16.65 49.2241 17.2608 49.8175 17.4202L54.1192 18.5738C54.717 18.7343 55.3238 18.3765 55.483 17.7858C55.6433 17.1906 55.2904 16.5787 54.6959 16.4204Z" fill="white"/>
<path d="M43.886 0.825767L42.7326 5.13248C42.5734 5.72766 42.9252 6.33845 43.5197 6.49783C44.1131 6.65722 44.7243 6.30501 44.8835 5.70983L46.0368 1.40312C46.196 0.807933 45.8442 0.197147 45.2497 0.0377627C44.6553 -0.121621 44.0452 0.231699 43.886 0.825767Z" fill="white"/>
</g>
<defs>
<clipPath id="clip0">
<rect width="57" height="54" fill="white"/>
</clipPath>
</defs>
</svg>
