<svg width="61" height="62" viewBox="0 0 61 62" fill="none" xmlns="http://www.w3.org/2000/svg">
<path fill-rule="evenodd" clip-rule="evenodd" d="M21.5332 9.98828C27.4004 7.40661 34.0686 10.0001 39.6801 13.3349C44.3856 16.1312 46.8248 20.9999 48.7483 26.1615C51.0064 32.221 54.5097 38.9313 51.2498 44.3807C47.8328 50.0926 40.3431 51.0257 33.7052 51.3082C26.9819 51.5944 19.804 50.9436 15.1392 45.9175C10.3048 40.7086 9.17879 33.1523 10.4138 26.2127C11.6346 19.3524 15.2512 12.7525 21.5332 9.98828Z" fill="#D9D9D9"/>
<path fill-rule="evenodd" clip-rule="evenodd" d="M18.1927 10.5448C23.4908 6.93672 30.5201 8.27093 36.6456 10.5267C41.782 12.4183 45.068 16.7606 47.9003 21.485C51.2254 27.0312 55.8934 32.9903 53.6817 38.9428C51.3634 45.1819 44.1694 47.465 37.6942 48.953C31.1359 50.4601 23.9595 51.129 18.4566 47.0376C12.7535 42.7975 10.2687 35.5731 10.2177 28.5247C10.1673 21.5568 12.5199 14.4081 18.1927 10.5448Z" fill="#3C3C3C"/>
<path d="M38.4831 37.3951L34.1991 32.9395C35.3006 31.6301 35.9041 29.9826 35.9041 28.2675C35.9041 24.2603 32.6439 21 28.6366 21C24.6294 21 21.3691 24.2603 21.3691 28.2675C21.3691 32.2747 24.6294 35.535 28.6366 35.535C30.141 35.535 31.5746 35.0812 32.8003 34.2199L37.1169 38.7093C37.2973 38.8967 37.5399 39 37.8 39C38.0461 39 38.2796 38.9062 38.4569 38.7355C38.8336 38.3731 38.8456 37.7721 38.4831 37.3951ZM28.6366 22.8959C31.5986 22.8959 34.0083 25.3055 34.0083 28.2675C34.0083 31.2295 31.5986 33.6391 28.6366 33.6391C25.6747 33.6391 23.265 31.2295 23.265 28.2675C23.265 25.3055 25.6747 22.8959 28.6366 22.8959Z" fill="white"/>
</svg>
