<svg width="39" height="36" viewBox="0 0 39 36" fill="none" xmlns="http://www.w3.org/2000/svg">
<path fill-rule="evenodd" clip-rule="evenodd" d="M4.25126 16.9178C4.34555 12.4727 7.9285 9.03891 11.6683 6.48664C14.8042 4.34645 18.5797 4.23807 22.3885 4.53964C26.8598 4.89367 32.1049 4.65527 34.5772 8.30053C37.1685 12.1213 35.5626 17.1041 33.7969 21.3607C32.0085 25.6721 29.4979 29.9951 24.9718 31.4569C20.2811 32.9719 15.2001 31.4678 11.1979 28.6596C7.24158 25.8835 4.15031 21.6772 4.25126 16.9178Z" fill="#D9D9D9"/>
<path fill-rule="evenodd" clip-rule="evenodd" d="M4.04235 19.4908C3.2334 15.1189 6.04571 11.03 9.1903 7.77246C11.8272 5.0409 15.5023 4.16925 19.2931 3.6923C23.7433 3.13239 28.8311 1.83547 31.9911 4.90373C35.3034 8.11975 34.7411 13.3246 33.8751 17.8509C32.9981 22.4353 31.4161 27.1776 27.2805 29.5267C22.9944 31.9613 17.7139 31.5186 13.2255 29.5802C8.78842 27.664 4.9085 24.1718 4.04235 19.4908Z" fill="#CB251B"/>
<rect x="12" y="11" width="16" height="2" rx="1" fill="white"/>
<rect x="12" y="16" width="16" height="2" rx="1" fill="white"/>
<rect x="12" y="21" width="16" height="2" rx="1" fill="white"/>
</svg>
