<svg width="56" height="51" viewBox="0 0 56 51" fill="none" xmlns="http://www.w3.org/2000/svg">
<path fill-rule="evenodd" clip-rule="evenodd" d="M5.35004 24.3766C5.48598 17.9681 10.6516 13.0175 16.0433 9.33788C20.5644 6.25233 26.0077 6.09607 31.4989 6.53086C37.9453 7.04127 45.5072 6.69757 49.0715 11.953C52.8075 17.4615 50.4922 24.6453 47.9466 30.7821C45.3683 36.9979 41.7486 43.2305 35.2233 45.338C28.4606 47.5222 21.1352 45.3537 15.3652 41.305C9.66124 37.3027 5.2045 31.2384 5.35004 24.3766Z" fill="#D9D9D9"/>
<path fill-rule="evenodd" clip-rule="evenodd" d="M5.04984 28.2847C3.88357 21.9817 7.93813 16.0867 12.4718 11.3902C16.2734 7.45206 21.5719 6.19539 27.0372 5.50776C33.4531 4.70052 40.7883 2.83072 45.3442 7.2543C50.1195 11.8909 49.3088 19.3949 48.0604 25.9204C46.7959 32.5299 44.5152 39.3669 38.5527 42.7537C32.3733 46.2637 24.7603 45.6255 18.2893 42.8309C11.8923 40.0682 6.29859 35.0335 5.04984 28.2847Z" fill="#CB251B"/>
<path d="M29.5567 19.6746C29.0967 19.6746 28.7234 19.3062 28.7234 18.8522V17.6185H25.39V18.8522C25.39 19.3062 25.0167 19.6746 24.5567 19.6746C24.0967 19.6746 23.7234 19.3062 23.7234 18.8522V17.6185C23.7234 16.7114 24.4709 15.9736 25.39 15.9736H28.7234C29.6425 15.9736 30.39 16.7114 30.39 17.6185V18.8522C30.39 19.3062 30.0167 19.6746 29.5567 19.6746Z" fill="white"/>
<path d="M27.0574 27.5768C27.3298 27.5768 27.6029 27.5292 27.8156 27.4497L36.5574 24.5764V30.161C36.5574 31.1288 35.7625 31.9227 34.7657 31.9227H19.349C18.3523 31.9227 17.5574 31.1288 17.5574 30.161V24.5764L26.2513 27.434C26.5025 27.5258 26.7747 27.5768 27.0574 27.5768Z" stroke="white"/>
<path d="M27.1011 25.3351L27.0924 25.3379L27.0841 25.341C27.0837 25.3411 27.0828 25.3413 27.0812 25.3416C27.0776 25.3421 27.0702 25.3429 27.0574 25.3429C27.0445 25.3429 27.0371 25.3421 27.0336 25.3416C27.0319 25.3413 27.031 25.3411 27.0306 25.341L27.0223 25.3379L27.0136 25.3351L17.5574 22.2242V20.7026C17.5574 19.7348 18.3523 18.9409 19.349 18.9409H34.7657C35.7625 18.9409 36.5574 19.7348 36.5574 20.7026V22.2242L27.1011 25.3351Z" stroke="white"/>
</svg>
