<svg width="61" height="56" viewBox="0 0 61 56" fill="none" xmlns="http://www.w3.org/2000/svg">
<path d="M32.8374 0.420898C31.4449 0.420898 30.0765 0.522712 28.7375 0.716157C28.4376 0.705976 28.1377 0.699188 27.8344 0.699188C12.4652 0.699188 0 12.9694 0 28.1074C0 43.2436 12.4652 55.5138 27.8361 55.5138C28.1377 55.5138 28.4393 55.507 28.7392 55.4969C30.0782 55.6903 31.4466 55.7921 32.8391 55.7921C48.3444 55.7921 60.9596 43.3726 60.9596 28.1074C60.9579 12.8404 48.3444 0.420898 32.8374 0.420898ZM49.68 49.5611V42.5547C46.1299 46.9276 40.6305 49.7529 34.4384 49.7529C23.7379 49.7529 15.0607 41.3516 15.0607 30.9887C15.0607 20.6241 23.7379 12.2228 34.4384 12.2228C40.6305 12.2228 46.1299 15.043 49.68 19.4193V12.1328C45.3578 8.58973 39.8085 6.45843 33.7473 6.45843C19.9878 6.45843 8.83752 17.439 8.83752 30.987C8.83752 42.3426 16.6738 51.8927 27.3139 54.6857C14.7591 52.1608 5.28562 41.2023 5.28562 28.1074C5.28562 13.1476 17.6457 0.977478 32.8374 0.977478C48.0308 0.977478 60.3926 13.1476 60.3926 28.1074C60.3926 36.826 56.1927 44.596 49.68 49.5611Z" fill="white"/>
</svg>
