<svg width="54" height="58" viewBox="0 0 54 58" fill="none" xmlns="http://www.w3.org/2000/svg">
<path fill-rule="evenodd" clip-rule="evenodd" d="M27.2297 51.9188C20.8302 52.2851 15.4904 47.5231 11.3997 42.4361C7.96961 38.1705 7.38756 32.7562 7.39097 27.2478C7.39498 20.7812 6.46013 13.2695 11.4203 9.3045C16.6193 5.1486 23.9623 6.89423 30.2797 8.9514C36.6783 11.035 43.1753 14.1554 45.7873 20.4957C48.4944 27.0665 46.9062 34.5393 43.3218 40.6086C39.7785 46.6085 34.0818 51.5265 27.2297 51.9188Z" fill="#D9D9D9"/>
<path fill-rule="evenodd" clip-rule="evenodd" d="M31.15 51.9115C24.9577 53.5678 18.7632 49.9874 13.7262 45.8355C9.5024 42.354 7.83465 37.1701 6.72113 31.7755C5.41391 25.4424 2.97542 18.2762 7.02862 13.3879C11.277 8.2642 18.8214 8.48472 25.4247 9.21826C32.1129 9.96124 39.1076 11.6995 42.9509 17.3785C46.934 23.264 46.894 30.9036 44.6147 37.5735C42.3614 44.1672 37.7803 50.1381 31.15 51.9115Z" fill="#CB251B"/>
<path d="M25.3105 28.3937C26.79 28.3937 28.1468 27.9466 29.2693 27.1531C31.4942 28.6279 32.6672 31.4926 32.6672 34.8993C32.6672 34.9091 32.6551 35.0499 32.2561 35.2634C31.8883 35.4602 31.3286 35.6401 30.6101 35.7897C29.1821 36.0869 27.2548 36.2391 25.3105 36.2391C23.3663 36.2391 21.439 36.0869 20.011 35.7897C19.2925 35.6401 18.7328 35.4602 18.365 35.2634C17.966 35.0499 17.9539 34.9091 17.9539 34.8993C17.9539 31.4921 19.1272 28.627 21.3528 27.1524C22.4695 27.9231 23.8247 28.3937 25.3105 28.3937Z" stroke="white"/>
<path d="M29.5083 21.6358C29.5083 23.9137 27.6354 25.7716 25.3112 25.7716C22.9869 25.7716 21.114 23.9137 21.114 21.6358C21.114 19.3578 22.9869 17.5 25.3112 17.5C27.6354 17.5 29.5083 19.3578 29.5083 21.6358Z" stroke="white"/>
</svg>
