<svg width="62" height="62" viewBox="0 0 62 62" fill="none" xmlns="http://www.w3.org/2000/svg">
<path fill-rule="evenodd" clip-rule="evenodd" d="M49.7853 17.2784C53.8388 22.244 53.1185 29.3625 51.4017 35.6603C49.9622 40.9413 45.9207 44.591 41.4594 47.822C36.2221 51.6149 30.6898 56.7816 24.568 55.0937C18.1515 53.3246 15.254 46.3553 13.2107 40.0334C11.1412 33.6302 9.85324 26.5388 13.4525 20.7022C17.1828 14.6532 24.1647 11.552 31.1823 10.8907C38.1197 10.237 45.4452 11.9616 49.7853 17.2784Z" fill="#D9D9D9"/>
<path fill-rule="evenodd" clip-rule="evenodd" d="M52.5418 21.7698C55.2997 27.5562 52.909 34.2998 49.7454 40.0096C47.0926 44.7975 42.2999 47.3827 37.1988 49.4614C31.2103 51.9017 24.6091 55.6063 19.0635 52.5126C13.2509 49.2699 12.0918 41.8118 11.6087 35.1855C11.1194 28.474 11.5529 21.2796 16.4356 16.465C21.496 11.4753 29.0148 10.1214 35.9886 11.146C42.8826 12.1589 49.5889 15.5742 52.5418 21.7698Z" fill="#CB251B"/>
<mask id="path-3-inside-1" fill="white">
<path d="M24.7972 31.7885C23.7129 33.0535 23.0576 34.6304 23.0576 36.3086V38.5732C23.0576 38.8095 23.2577 39.0012 23.5045 39.0012H26.9059C27.1526 39.0012 27.3527 38.8095 27.3527 38.5732C27.3527 38.3369 27.1526 38.1452 26.9059 38.1452H23.9507V36.3086C23.9507 34.6001 24.7117 32.9666 26.0941 31.709C26.1078 31.6964 26.1221 31.6844 26.1359 31.6718C26.189 31.6237 26.2434 31.5768 26.2984 31.5304C26.3025 31.527 26.3067 31.523 26.3109 31.5196C26.419 31.4286 26.5301 31.3411 26.643 31.2558C26.6633 31.2404 26.6843 31.2255 26.7052 31.21C26.7356 31.1877 26.7661 31.166 26.7966 31.1442C26.827 31.1231 26.8569 31.1013 26.8874 31.0807C26.9005 31.0716 26.913 31.063 26.9262 31.0544C27.5606 30.6247 28.2613 30.2917 28.9931 30.068L29.7183 31.4172L28.7494 35.4446C28.7129 35.5945 28.7643 35.7519 28.8832 35.856L30.7559 37.4975C30.8414 37.5725 30.9495 37.6097 31.0576 37.6097C31.1657 37.6097 31.2739 37.5725 31.3593 37.4975L33.232 35.856C33.3509 35.7519 33.4017 35.5945 33.3659 35.4446L32.3969 31.4172L33.1221 30.068C34.1914 30.3947 35.1938 30.9554 36.0218 31.7084C37.4035 32.966 38.1651 34.5995 38.1651 36.308V38.1452H28.3945C28.1478 38.1452 27.9477 38.3369 27.9477 38.5732C27.9477 38.8095 28.1478 39.0012 28.3945 39.0012H38.6114C38.8581 39.0012 39.0582 38.8095 39.0582 38.5732V36.3086C39.0582 33.0038 36.5176 30.0937 33.1639 29.1811C34.3324 28.4985 35.1144 27.2661 35.1144 25.862V22.8868C35.1144 20.9483 33.6239 19.3365 31.6831 19.0475C31.3079 18.9737 30.79 19.0098 30.79 19.0098C30.7631 19.0115 30.7374 19.0144 30.7105 19.0166C30.6801 19.0189 30.6496 19.0212 30.6191 19.0247C30.5821 19.0287 30.5457 19.0332 30.5086 19.0384C30.4794 19.0424 30.4501 19.0458 30.4208 19.0504C30.3838 19.0561 30.3467 19.063 30.3097 19.0693C30.2816 19.0744 30.2535 19.079 30.2255 19.0847C30.1872 19.0922 30.1496 19.1013 30.1126 19.1099C30.0863 19.1162 30.06 19.1213 30.0337 19.1282C29.9937 19.1379 29.9543 19.1494 29.9148 19.1608C29.8915 19.1671 29.8682 19.1734 29.8455 19.1803C29.8013 19.1934 29.7571 19.2083 29.7135 19.2232C29.6962 19.2289 29.6783 19.2341 29.661 19.2404C29.5385 19.2833 29.419 19.3319 29.3025 19.3857C29.2906 19.3914 29.2786 19.3977 29.2667 19.4034C29.2207 19.4252 29.1759 19.4469 29.1311 19.4698C29.1132 19.479 29.0952 19.4893 29.0773 19.499C29.0397 19.5196 29.0015 19.5396 28.9644 19.5613C28.9441 19.5734 28.9244 19.5854 28.9047 19.5974C28.8706 19.618 28.8366 19.6386 28.8031 19.6598C28.7822 19.6735 28.7619 19.6872 28.741 19.7015C28.7093 19.7227 28.6777 19.7439 28.6466 19.7656C28.6257 19.7805 28.6048 19.7959 28.5845 19.8114C28.5546 19.8331 28.5248 19.8554 28.4961 19.8783C28.4752 19.8943 28.4549 19.9115 28.4346 19.9281C28.4065 19.951 28.3784 19.9739 28.3509 19.9973C28.3306 20.0145 28.3109 20.0328 28.2906 20.0505C28.2637 20.0746 28.2374 20.098 28.2117 20.1226C28.192 20.1409 28.1729 20.1604 28.1532 20.1793C28.1281 20.2039 28.103 20.2291 28.0785 20.2542C28.0594 20.2737 28.0409 20.2937 28.0224 20.3137C27.9985 20.3395 27.9752 20.3652 27.9525 20.3916C27.9346 20.4122 27.9166 20.4333 27.8987 20.4545C27.8766 20.4808 27.8545 20.5077 27.833 20.5346C27.8157 20.5563 27.799 20.5781 27.7822 20.6004C27.7613 20.6279 27.741 20.6553 27.7207 20.6834C27.7046 20.7057 27.6884 20.7286 27.6729 20.7514C27.6532 20.7795 27.6347 20.8081 27.6156 20.8367C27.6 20.8602 27.5851 20.8836 27.5708 20.9071C27.5528 20.9363 27.5349 20.9654 27.5182 20.9952C27.5038 21.0192 27.4901 21.0438 27.4764 21.0679C27.4596 21.0976 27.4435 21.1279 27.428 21.1583C27.4148 21.1834 27.4023 21.208 27.3898 21.2332C27.3748 21.2641 27.3605 21.295 27.3461 21.3259C27.3342 21.3516 27.3228 21.3768 27.3115 21.4031C27.2978 21.4346 27.2852 21.4661 27.2721 21.4981C27.2595 21.5233 27.2488 21.549 27.2392 21.5754C27.2273 21.608 27.2159 21.6406 27.2046 21.6732C27.1956 21.6995 27.186 21.7258 27.1777 21.7527C27.1669 21.7859 27.1574 21.8197 27.1478 21.8534C27.1401 21.8803 27.1323 21.9066 27.1251 21.9341C27.1162 21.9684 27.1084 22.0033 27.1 22.0377C27.0935 22.0646 27.0869 22.0915 27.0815 22.1183C27.0737 22.1544 27.0678 22.1904 27.0612 22.2271C27.0564 22.2534 27.051 22.2797 27.0469 22.306C27.0409 22.3444 27.0361 22.3833 27.0313 22.4216C27.0283 22.4468 27.0242 22.4714 27.0218 22.4965C27.017 22.5395 27.0146 22.5824 27.0116 22.6259C27.0104 22.6476 27.008 22.6688 27.0068 22.6899C27.0033 22.7546 27.0015 22.8198 27.0015 22.8856V23.7215V24.5861V25.8609C27.0015 25.9255 27.0033 25.9908 27.0068 26.0548C27.008 26.08 27.011 26.1046 27.0128 26.1298C27.0158 26.1687 27.0182 26.2076 27.0224 26.2465C27.0254 26.2774 27.0301 26.3083 27.0343 26.3386C27.0385 26.3707 27.0421 26.4027 27.0469 26.4348C27.0522 26.4691 27.0588 26.5028 27.0648 26.5372C27.0702 26.5652 27.0743 26.5932 27.0803 26.6207C27.0881 26.6573 27.097 26.6939 27.1054 26.7306C27.1114 26.7546 27.1168 26.7792 27.1227 26.8032C27.1329 26.8421 27.1442 26.881 27.1556 26.9199C27.1616 26.9405 27.1675 26.9617 27.1741 26.9823C27.1872 27.0241 27.2016 27.0658 27.2165 27.107C27.2225 27.1236 27.2279 27.1402 27.2344 27.1568C27.2512 27.202 27.2691 27.2472 27.2876 27.2919C27.2924 27.3033 27.2972 27.3153 27.3019 27.3273C27.3234 27.3771 27.3455 27.4263 27.3688 27.4749C27.3718 27.4807 27.3742 27.4864 27.3772 27.4927C27.7171 28.193 28.2673 28.7812 28.9513 29.1811C27.7105 29.5187 26.5815 30.1298 25.6508 30.9337C25.511 31.051 24.7972 31.7885 24.7972 31.7885ZM27.8963 22.8845C27.8963 21.267 29.2273 19.9418 30.8951 19.8606C30.9489 19.8577 31.0032 19.8566 31.0576 19.8566C31.1084 19.8566 31.1592 19.8577 31.2093 19.8606C31.2111 19.8606 31.2129 19.8606 31.2141 19.8606C31.2147 19.8606 31.2153 19.8606 31.2165 19.8606C31.2177 19.8606 31.2189 19.8606 31.2201 19.8606C32.888 19.9418 34.2189 21.267 34.2189 22.8845V23.9035C32.7786 23.6477 32.1956 22.2448 32.1693 22.1801C32.1078 22.0245 31.9567 21.9181 31.7834 21.9061C31.6096 21.8946 31.4447 21.981 31.3599 22.1264C31.3193 22.1967 30.388 23.7582 27.8963 23.9287V22.8845ZM32.4363 35.3943L31.0576 36.6027L29.6789 35.3943L30.5463 31.7891H31.5696L32.4363 35.3943ZM29.8826 29.8534C29.9214 29.8466 29.9608 29.8403 29.9997 29.834C30.0271 29.8294 30.0552 29.8254 30.0827 29.8208C30.1317 29.8134 30.1801 29.8065 30.2291 29.8002C30.293 29.7922 30.3563 29.7848 30.4202 29.7779C30.4459 29.775 30.4716 29.7728 30.4973 29.7705C30.5032 29.7699 30.5098 29.7693 30.5158 29.7688C30.5821 29.763 30.6484 29.7579 30.7147 29.7539C30.7416 29.7522 30.7679 29.7504 30.7948 29.7493C30.7948 29.7493 30.7948 29.7493 30.7954 29.7493C30.8491 29.7464 30.9029 29.7453 30.9567 29.7436C30.9901 29.7441 31.0236 29.7459 31.057 29.7459C31.0905 29.7459 31.1239 29.7441 31.1574 29.7436C31.2111 29.7453 31.2649 29.7464 31.3193 29.7493C31.3366 29.7504 31.3539 29.751 31.3712 29.7522C31.4495 29.7567 31.5277 29.7625 31.606 29.7699C31.6353 29.7728 31.6645 29.7756 31.6932 29.7785C31.7577 29.7848 31.8228 29.7928 31.8874 29.8008C31.9351 29.8071 31.9829 29.814 32.0307 29.8208C32.0588 29.8248 32.0869 29.8294 32.115 29.834C32.1538 29.8403 32.1926 29.8466 32.2314 29.8534L31.6514 30.9331H30.462L29.8826 29.8534ZM31.2428 28.8859C31.2332 28.8859 31.2243 28.8853 31.2147 28.8859C31.2034 28.8865 31.1926 28.887 31.1813 28.8876C31.1777 28.8876 31.1747 28.8882 31.1711 28.8882C31.1353 28.887 31.0994 28.8859 31.0636 28.8853C31.0594 28.8853 31.0552 28.8853 31.0516 28.8853C31.0158 28.8859 30.98 28.887 30.9441 28.8882C29.3145 28.8321 27.9806 27.5585 27.8981 26.0125C27.8957 25.9627 27.8939 25.9124 27.8939 25.8614V24.7858C29.913 24.6673 31.1012 23.7565 31.6872 23.1294C32.1 23.7467 32.8999 24.6044 34.2207 24.7698V25.8614C34.2207 27.4727 32.9011 28.7938 31.2428 28.8859Z"/>
</mask>
<path d="M24.7972 31.7885C23.7129 33.0535 23.0576 34.6304 23.0576 36.3086V38.5732C23.0576 38.8095 23.2577 39.0012 23.5045 39.0012H26.9059C27.1526 39.0012 27.3527 38.8095 27.3527 38.5732C27.3527 38.3369 27.1526 38.1452 26.9059 38.1452H23.9507V36.3086C23.9507 34.6001 24.7117 32.9666 26.0941 31.709C26.1078 31.6964 26.1221 31.6844 26.1359 31.6718C26.189 31.6237 26.2434 31.5768 26.2984 31.5304C26.3025 31.527 26.3067 31.523 26.3109 31.5196C26.419 31.4286 26.5301 31.3411 26.643 31.2558C26.6633 31.2404 26.6843 31.2255 26.7052 31.21C26.7356 31.1877 26.7661 31.166 26.7966 31.1442C26.827 31.1231 26.8569 31.1013 26.8874 31.0807C26.9005 31.0716 26.913 31.063 26.9262 31.0544C27.5606 30.6247 28.2613 30.2917 28.9931 30.068L29.7183 31.4172L28.7494 35.4446C28.7129 35.5945 28.7643 35.7519 28.8832 35.856L30.7559 37.4975C30.8414 37.5725 30.9495 37.6097 31.0576 37.6097C31.1657 37.6097 31.2739 37.5725 31.3593 37.4975L33.232 35.856C33.3509 35.7519 33.4017 35.5945 33.3659 35.4446L32.3969 31.4172L33.1221 30.068C34.1914 30.3947 35.1938 30.9554 36.0218 31.7084C37.4035 32.966 38.1651 34.5995 38.1651 36.308V38.1452H28.3945C28.1478 38.1452 27.9477 38.3369 27.9477 38.5732C27.9477 38.8095 28.1478 39.0012 28.3945 39.0012H38.6114C38.8581 39.0012 39.0582 38.8095 39.0582 38.5732V36.3086C39.0582 33.0038 36.5176 30.0937 33.1639 29.1811C34.3324 28.4985 35.1144 27.2661 35.1144 25.862V22.8868C35.1144 20.9483 33.6239 19.3365 31.6831 19.0475C31.3079 18.9737 30.79 19.0098 30.79 19.0098C30.7631 19.0115 30.7374 19.0144 30.7105 19.0166C30.6801 19.0189 30.6496 19.0212 30.6191 19.0247C30.5821 19.0287 30.5457 19.0332 30.5086 19.0384C30.4794 19.0424 30.4501 19.0458 30.4208 19.0504C30.3838 19.0561 30.3467 19.063 30.3097 19.0693C30.2816 19.0744 30.2535 19.079 30.2255 19.0847C30.1872 19.0922 30.1496 19.1013 30.1126 19.1099C30.0863 19.1162 30.06 19.1213 30.0337 19.1282C29.9937 19.1379 29.9543 19.1494 29.9148 19.1608C29.8915 19.1671 29.8682 19.1734 29.8455 19.1803C29.8013 19.1934 29.7571 19.2083 29.7135 19.2232C29.6962 19.2289 29.6783 19.2341 29.661 19.2404C29.5385 19.2833 29.419 19.3319 29.3025 19.3857C29.2906 19.3914 29.2786 19.3977 29.2667 19.4034C29.2207 19.4252 29.1759 19.4469 29.1311 19.4698C29.1132 19.479 29.0952 19.4893 29.0773 19.499C29.0397 19.5196 29.0015 19.5396 28.9644 19.5613C28.9441 19.5734 28.9244 19.5854 28.9047 19.5974C28.8706 19.618 28.8366 19.6386 28.8031 19.6598C28.7822 19.6735 28.7619 19.6872 28.741 19.7015C28.7093 19.7227 28.6777 19.7439 28.6466 19.7656C28.6257 19.7805 28.6048 19.7959 28.5845 19.8114C28.5546 19.8331 28.5248 19.8554 28.4961 19.8783C28.4752 19.8943 28.4549 19.9115 28.4346 19.9281C28.4065 19.951 28.3784 19.9739 28.3509 19.9973C28.3306 20.0145 28.3109 20.0328 28.2906 20.0505C28.2637 20.0746 28.2374 20.098 28.2117 20.1226C28.192 20.1409 28.1729 20.1604 28.1532 20.1793C28.1281 20.2039 28.103 20.2291 28.0785 20.2542C28.0594 20.2737 28.0409 20.2937 28.0224 20.3137C27.9985 20.3395 27.9752 20.3652 27.9525 20.3916C27.9346 20.4122 27.9166 20.4333 27.8987 20.4545C27.8766 20.4808 27.8545 20.5077 27.833 20.5346C27.8157 20.5563 27.799 20.5781 27.7822 20.6004C27.7613 20.6279 27.741 20.6553 27.7207 20.6834C27.7046 20.7057 27.6884 20.7286 27.6729 20.7514C27.6532 20.7795 27.6347 20.8081 27.6156 20.8367C27.6 20.8602 27.5851 20.8836 27.5708 20.9071C27.5528 20.9363 27.5349 20.9654 27.5182 20.9952C27.5038 21.0192 27.4901 21.0438 27.4764 21.0679C27.4596 21.0976 27.4435 21.1279 27.428 21.1583C27.4148 21.1834 27.4023 21.208 27.3898 21.2332C27.3748 21.2641 27.3605 21.295 27.3461 21.3259C27.3342 21.3516 27.3228 21.3768 27.3115 21.4031C27.2978 21.4346 27.2852 21.4661 27.2721 21.4981C27.2595 21.5233 27.2488 21.549 27.2392 21.5754C27.2273 21.608 27.2159 21.6406 27.2046 21.6732C27.1956 21.6995 27.186 21.7258 27.1777 21.7527C27.1669 21.7859 27.1574 21.8197 27.1478 21.8534C27.1401 21.8803 27.1323 21.9066 27.1251 21.9341C27.1162 21.9684 27.1084 22.0033 27.1 22.0377C27.0935 22.0646 27.0869 22.0915 27.0815 22.1183C27.0737 22.1544 27.0678 22.1904 27.0612 22.2271C27.0564 22.2534 27.051 22.2797 27.0469 22.306C27.0409 22.3444 27.0361 22.3833 27.0313 22.4216C27.0283 22.4468 27.0242 22.4714 27.0218 22.4965C27.017 22.5395 27.0146 22.5824 27.0116 22.6259C27.0104 22.6476 27.008 22.6688 27.0068 22.6899C27.0033 22.7546 27.0015 22.8198 27.0015 22.8856V23.7215V24.5861V25.8609C27.0015 25.9255 27.0033 25.9908 27.0068 26.0548C27.008 26.08 27.011 26.1046 27.0128 26.1298C27.0158 26.1687 27.0182 26.2076 27.0224 26.2465C27.0254 26.2774 27.0301 26.3083 27.0343 26.3386C27.0385 26.3707 27.0421 26.4027 27.0469 26.4348C27.0522 26.4691 27.0588 26.5028 27.0648 26.5372C27.0702 26.5652 27.0743 26.5932 27.0803 26.6207C27.0881 26.6573 27.097 26.6939 27.1054 26.7306C27.1114 26.7546 27.1168 26.7792 27.1227 26.8032C27.1329 26.8421 27.1442 26.881 27.1556 26.9199C27.1616 26.9405 27.1675 26.9617 27.1741 26.9823C27.1872 27.0241 27.2016 27.0658 27.2165 27.107C27.2225 27.1236 27.2279 27.1402 27.2344 27.1568C27.2512 27.202 27.2691 27.2472 27.2876 27.2919C27.2924 27.3033 27.2972 27.3153 27.3019 27.3273C27.3234 27.3771 27.3455 27.4263 27.3688 27.4749C27.3718 27.4807 27.3742 27.4864 27.3772 27.4927C27.7171 28.193 28.2673 28.7812 28.9513 29.1811C27.7105 29.5187 26.5815 30.1298 25.6508 30.9337C25.511 31.051 24.7972 31.7885 24.7972 31.7885ZM27.8963 22.8845C27.8963 21.267 29.2273 19.9418 30.8951 19.8606C30.9489 19.8577 31.0032 19.8566 31.0576 19.8566C31.1084 19.8566 31.1592 19.8577 31.2093 19.8606C31.2111 19.8606 31.2129 19.8606 31.2141 19.8606C31.2147 19.8606 31.2153 19.8606 31.2165 19.8606C31.2177 19.8606 31.2189 19.8606 31.2201 19.8606C32.888 19.9418 34.2189 21.267 34.2189 22.8845V23.9035C32.7786 23.6477 32.1956 22.2448 32.1693 22.1801C32.1078 22.0245 31.9567 21.9181 31.7834 21.9061C31.6096 21.8946 31.4447 21.981 31.3599 22.1264C31.3193 22.1967 30.388 23.7582 27.8963 23.9287V22.8845ZM32.4363 35.3943L31.0576 36.6027L29.6789 35.3943L30.5463 31.7891H31.5696L32.4363 35.3943ZM29.8826 29.8534C29.9214 29.8466 29.9608 29.8403 29.9997 29.834C30.0271 29.8294 30.0552 29.8254 30.0827 29.8208C30.1317 29.8134 30.1801 29.8065 30.2291 29.8002C30.293 29.7922 30.3563 29.7848 30.4202 29.7779C30.4459 29.775 30.4716 29.7728 30.4973 29.7705C30.5032 29.7699 30.5098 29.7693 30.5158 29.7688C30.5821 29.763 30.6484 29.7579 30.7147 29.7539C30.7416 29.7522 30.7679 29.7504 30.7948 29.7493C30.7948 29.7493 30.7948 29.7493 30.7954 29.7493C30.8491 29.7464 30.9029 29.7453 30.9567 29.7436C30.9901 29.7441 31.0236 29.7459 31.057 29.7459C31.0905 29.7459 31.1239 29.7441 31.1574 29.7436C31.2111 29.7453 31.2649 29.7464 31.3193 29.7493C31.3366 29.7504 31.3539 29.751 31.3712 29.7522C31.4495 29.7567 31.5277 29.7625 31.606 29.7699C31.6353 29.7728 31.6645 29.7756 31.6932 29.7785C31.7577 29.7848 31.8228 29.7928 31.8874 29.8008C31.9351 29.8071 31.9829 29.814 32.0307 29.8208C32.0588 29.8248 32.0869 29.8294 32.115 29.834C32.1538 29.8403 32.1926 29.8466 32.2314 29.8534L31.6514 30.9331H30.462L29.8826 29.8534ZM31.2428 28.8859C31.2332 28.8859 31.2243 28.8853 31.2147 28.8859C31.2034 28.8865 31.1926 28.887 31.1813 28.8876C31.1777 28.8876 31.1747 28.8882 31.1711 28.8882C31.1353 28.887 31.0994 28.8859 31.0636 28.8853C31.0594 28.8853 31.0552 28.8853 31.0516 28.8853C31.0158 28.8859 30.98 28.887 30.9441 28.8882C29.3145 28.8321 27.9806 27.5585 27.8981 26.0125C27.8957 25.9627 27.8939 25.9124 27.8939 25.8614V24.7858C29.913 24.6673 31.1012 23.7565 31.6872 23.1294C32.1 23.7467 32.8999 24.6044 34.2207 24.7698V25.8614C34.2207 27.4727 32.9011 28.7938 31.2428 28.8859Z" fill="white" stroke="white" stroke-width="2" mask="url(#path-3-inside-1)"/>
</svg>
