<svg width="375" height="72" viewBox="0 0 375 72" fill="none" xmlns="http://www.w3.org/2000/svg">
<path opacity="0.5" d="M187.679 15.1951C320.773 52.5948 377.601 19.9382 402.001 5.4313L379.802 60.9193H-8.14332C-16.3356 63.4289 -27.7794 76.3695 -11.2032 46.6593C12.9786 3.31699 83.806 -13.9934 187.679 15.1951Z" fill="#CB251B"/>
<path opacity="0.5" d="M177.21 17.1763C307.512 58.8195 362.918 21.7507 386.706 5.28731L382.978 49.2106L-7.95627 61.7929C-15.954 64.6572 -33.154 87.0609 -17.0875 53.48C6.35073 4.49126 75.5168 -15.3241 177.21 17.1763Z" fill="#CB251B"/>
<path d="M187.803 28.6166C282.944 46.7992 355.533 30.4666 379.935 20.0275V61.5197H-8.03001C-16.2227 63.3256 -27.6926 61.9425 -8.03001 41.9629C16.5482 16.9883 68.8759 5.88843 187.803 28.6166Z" fill="white"/>
<path d="M189.785 36.2172C328.988 69.3409 370.994 28.6852 395.396 18.2461L379.935 65.4822H-8.03001C-16.2227 67.2882 -27.6926 77.6037 -8.03001 57.624C16.5482 32.6494 58.1725 4.89988 189.785 36.2172Z" stroke="#CB251B"/>
<path d="M185.445 34.2355C273.033 75.3313 366.654 26.7034 391.056 16.2643L375.595 63.5005H-12.37C-20.5627 65.3064 -32.0325 75.6219 -12.37 55.6422C12.2082 30.6676 62.9689 -23.2294 185.445 34.2355Z" stroke="#E2E2E2"/>
<rect x="-2" y="54" width="380" height="14" fill="white"/>
</svg>
